# xmcd
#
# Track frame offsets:
#	150
#	16649
#	33535
#	48844
#	60137
#	74259
#	91367
#	106487
#	120487
#	137758
#	153409
#	172732
#	187716
#	201429
#	216780
#	236152
#	251730
#	268968
#	283047
#	299710
#
# Disc length: 4215 seconds
#
# Revision: 1
# Processed by: cddbd v1.5.2PL0 Copyright (c) Steve Scherf et al.
# Submitted via: audiograbber 1.83.01
#
DISCID=22107514
DTITLE=Various Artist - Summer Jams Top 100 disc 5/5
DYEAR=2006
DGENRE=top40
TTITLE0=Haiducii - Dragostea Din Tei
TTITLE1=Panjabi MC - Mundian To Bach Ke
TTITLE2=Ebon-E - Pride and Joy
TTITLE3=Lorna - Papi Chulo... Te Traigo El MMMM
TTITLE4=Bobby Summer - Pretty Queen
TTITLE5=Jason Nevins Presents U.K.N.Y. - I'm In Heaven
TTITLE6=Florida Inc. - F**k It (I Don't Want You Back)
TTITLE7=Righeira - Vamos A La Playa
TTITLE8=Hi-Skool - Summer Nights
TTITLE9=Da Booty Bros. - Opzij Die Slip
TTITLE10=D.O.N.S. - Pump Up The Jam
TTITLE11=Kingsize Lover - I Can't Stop Loving You
TTITLE12=Lexter Aubery - Sweet Sensation
TTITLE13=Monika Kruse - Latin Lovers
TTITLE14=Nick Kamen - I Promised Myself 2004
TTITLE15=Junior Jack - Stupidisco
TTITLE16=M.C. Sar and The Real McCoy - It's On You
TTITLE17=Mark van Dale - Something Goin' On
TTITLE18=DJ Sammy - Sunlight
TTITLE19=Mad Frog - Axel F
EXTD=
EXTT0=
EXTT1=
EXTT2=
EXTT3=
EXTT4=
EXTT5=
EXTT6=
EXTT7=
EXTT8=
EXTT9=
EXTT10=
EXTT11=
EXTT12=
EXTT13=
EXTT14=
EXTT15=
EXTT16=
EXTT17=
EXTT18=
EXTT19=
PLAYORDER=
